#!OML:ASF I:\Actors\actors\Patient Classification 2\Patient 1\Session 1\actor1.ASF
:FULLY-SPECIFIED
:DEGREES
240
root -0.271 18.7808 5.6082 7.52075 15.8329 0.958945
lowerback 11.0212 5.01907 4.20967
upperback -0.272795 7.41919 2.95319
thorax -6.31345 3.54921 -0.440321
lowerneck -9.74688 -11.4309 -9.75366
upperneck 12.3097 -14.7215 5.20642
head 6.44106 -7.22112 1.82344
rclavicle -1.8487e-013 -3.81667e-014
rhumerus -17.0123 15.3462 -54.7063
rradius 98.2849
rwrist -55.6699
rhand -1.9557 -53.0708
rfingers 7.12502
rthumb 23.7159 -81.6276
lclavicle -1.8487e-013 -3.81667e-014
lhumerus -54.5481 -10.6689 93.0996
lradius 64.9348
lwrist 12.7326
lhand -5.98385 -23.7813
lfingers 7.12502
lthumb 19.8479 5.22526
rfemur 0 0 0
rtibia 0
rfoot 0 0
rtoes 0
lfemur -16.1075 -9.51565 -14.3589
ltibia 23.7508
lfoot -16.0826 2.56625
ltoes -55.9862
241
root -0.274091 18.7833 5.60496 7.6962 16.4948 0.893931
lowerback 11.0868 4.97583 4.2533
upperback -0.27248 7.37924 3.05366
thorax -6.35969 3.52874 -0.36013
lowerneck -9.47572 -11.5984 -10.003
upperneck 11.6307 -14.9395 5.4297
head 6.23181 -7.33077 1.93417
rclavicle -2.5842e-014 3.49861e-014
rhumerus -18.2918 15.2478 -53.3316
rradius 102.32
rwrist -56.7518
rhand -1.14087 -53.3531
rfingers 7.12502
rthumb 24.4972 -81.8063
lclavicle -2.5842e-014 3.49861e-014
lhumerus -54.8038 -10.4034 92.9178
lradius 65.9771
lwrist 12.7598
lhand -5.76807 -23.8631
lfingers 7.12502
lthumb 20.0553 5.12182
rfemur 0 0 0
rtibia 0
rfoot 0 0
rtoes 0
lfemur -16.5675 -9.66461 -14.2091
ltibia 23.8872
lfoot -15.9135 2.22742
ltoes -55.9736
242
root -0.277596 18.7829 5.60633 7.5959 17.5789 0.923934
lowerback 11.3456 4.74426 4.42569
upperback -0.140585 7.10747 3.116
thorax -6.36 3.39163 -0.364657
lowerneck -9.29456 -11.726 -10.164
upperneck 10.7319 -15.1106 5.7485
head 5.96685 -7.40719 2.06811
rclavicle 4.41302e-014 2.54444e-014
rhumerus -19.5453 14.3826 -52.6508
rradius 105.693
rwrist -57.4702
rhand -0.0788034 -53.5763
rfingers 7.12502
rthumb 25.5149 -81.8879
lclavicle 4.41302e-014 2.54444e-014
lhumerus -54.9898 -10.1459 92.6911
lradius 66.9881
lwrist 12.875
lhand -5.68222 -24.0062
lfingers 7.12502
lthumb 20.1378 4.97012
rfemur 0 0 0
rtibia 0
rfoot 0 0
rtoes 0
lfemur -16.7495 -10.0573 -14.1539
ltibia 24.0177
lfoot -15.6669 1.70312
ltoes -55.9231
243
root -0.282873 18.7874 5.60395 7.78338 18.3364 0.945534
lowerback 11.2892 4.59611 4.54076
upperback -0.0519529 6.91647 3.11639
thorax -6.22596 3.29941 -0.38775
lowerneck -9.27981 -11.8013 -10.2058
upperneck 9.8757 -15.2076 6.04284
head 5.72799 -7.4417 2.17599
rclavicle -1.63003e-014 -5.88403e-014
rhumerus -20.5188 13.1795 -52.5318
rradius 107.995
rwrist -57.7938
rhand 0.428619 -53.1558
rfingers 7.12502
rthumb 26.0009 -81.3969
lclavicle -1.63003e-014 -5.88403e-014
lhumerus -55.1168 -9.76718 92.3928
lradius 67.8829
lwrist 13.1255
lhand -5.76717 -24.084
lfingers 7.12502
lthumb 20.0562 4.90082
rfemur 0 0 0
rtibia 0
rfoot 0 0
rtoes 0
lfemur -17.1987 -10.2512 -14.0761
ltibia 24.12
lfoot -15.4688 1.37686
ltoes -56.0765
244
root -0.291497 18.7928 5.60002 7.97091 18.8478 0.958668
lowerback 11.2384 4.52376 4.58347
upperback 0.0109269 6.81628 3.08435
thorax -6.12452 3.25218 -0.421366
lowerneck -9.38131 -11.8672 -10.1424
upperneck 9.20116 -15.2897 6.24782
head 5.55028 -7.4681 2.2325
rclavicle 5.1684e-015 9.54166e-015
rhumerus -21.1624 11.7143 -52.799
rradius 109.307
rwrist -57.7389
rhand 0.0606466 -53.0623
rfingers 7.12502
rthumb 25.6485 -81.3547
lclavicle 5.1684e-015 9.54166e-015
lhumerus -55.1511 -9.31842 92.0958
lradius 68.4779
lwrist 13.4004
lhand -6.01418 -24.1403
lfingers 7.12502
lthumb 19.8187 4.86927
rfemur 0 0 0
rtibia 0
rfoot 0 0
rtoes 0
lfemur -17.5807 -10.4343 -13.9859
ltibia 24.181
lfoot -15.3801 1.24166
ltoes -56.3308
245
root -0.302242 18.7974 5.59584 8.10384 19.0413 0.932784
lowerback 11.2502 4.55059 4.60204
upperback 0.0351358 6.84778 3.00422
thorax -6.09197 3.26672 -0.519266
lowerneck -9.47612 -11.9476 -10.079
upperneck 8.60455 -15.4069 6.55378
head 5.40794 -7.50591 2.31347
rclavicle -7.27552e-014 -2.70347e-014
rhumerus -21.4295 10.2206 -53.4624
rradius 108.902
rwrist -57.7395
rhand 0.338226 -52.5938
rfingers 7.12502
rthumb 25.9143 -80.8476
lclavicle -7.27552e-014 -2.70347e-014
lhumerus -55.0582 -8.89414 91.7996
lradius 68.6886
lwrist 13.5993
lhand -6.2334 -24.1729
lfingers 7.12502
lthumb 19.608 4.8583
rfemur 0 0 0
rtibia 0
rfoot 0 0
rtoes 0
lfemur -17.8213 -10.5412 -13.8742
ltibia 24.2013
lfoot -15.3462 1.27132
ltoes -56.4461
246
root -0.309076 18.7998 5.59422 8.15432 18.8749 0.868613
lowerback 11.2908 4.64822 4.61608
upperback 0.0347796 6.97423 2.89936
thorax -6.09549 3.326 -0.658444
lowerneck -9.59857 -12.0295 -10.0729
upperneck 8.16946 -15.5246 6.88468
head 5.32816 -7.5434 2.40327
rclavicle 2.74323e-014 1.59028e-015
rhumerus -21.2031 8.80546 -54.5106
rradius 107.515
rwrist -56.8793
rhand 0.140155 -52.2208
rfingers 7.12502
rthumb 25.7246 -80.5022
lclavicle 2.74323e-014 1.59028e-015
lhumerus -54.8947 -8.39654 91.4949
lradius 68.5864
lwrist 13.6972
lhand -6.28752 -24.139
lfingers 7.12502
lthumb 19.5559 4.89748
rfemur 0 0 0
rtibia 0
rfoot 0 0
rtoes 0
lfemur -17.8644 -10.4421 -13.7957
ltibia 24.1744
lfoot -15.376 1.42527
ltoes -56.4898
247
root -0.309646 18.8001 5.59692 8.13983 18.3965 0.870046
lowerback 11.3451 4.79626 4.52836
upperback 0.0144266 7.1554 2.77999
thorax -6.13567 3.41358 -0.768094
lowerneck -9.72872 -12.0882 -10.0794
upperneck 7.91387 -15.597 7.05065
head 5.28967 -7.56774 2.44508
rclavicle 9.50191e-014 3.97569e-014
rhumerus -20.5513 7.65481 -55.7859
rradius 105.087
rwrist -54.875
rhand -0.445388 -51.4731
rfingers 7.12502
rthumb 25.1637 -79.8344
lclavicle 9.50191e-014 3.97569e-014
lhumerus -54.6768 -7.85057 91.2359
lradius 68.1287
lwrist 13.6624
lhand -6.35526 -24.1795
lfingers 7.12502
lthumb 19.4908 4.86356
rfemur 0 0 0
rtibia 0
rfoot 0 0
rtoes 0
lfemur -17.6911 -10.3604 -13.845
ltibia 24.1092
lfoot -15.5435 1.81337
ltoes -56.5187
248
root -0.307087 18.7985 5.60462 8.08955 17.7069 0.956874
lowerback 11.366 4.9794 4.26394
upperback -0.0239098 7.36086 2.68605
thorax -6.2004 3.51832 -0.757482
lowerneck -9.87613 -12.0944 -10.1286
upperneck 7.77941 -15.5805 7.0784
head 5.2762 -7.55674 2.45725
rclavicle 6.36111e-014 -2.54444e-014
rhumerus -19.6545 6.53674 -57.2796
rradius 101.689
rwrist -51.8841
rhand -0.763033 -50.5482
rfingers 7.12502
rthumb 24.8593 -78.9519
lclavicle 6.36111e-014 -2.54444e-014
lhumerus -54.3986 -7.29891 91.0958
lradius 67.3014
lwrist 13.5061
lhand -6.48758 -24.2106
lfingers 7.12502
lthumb 19.3636 4.84531
rfemur 0 0 0
rtibia 0
rfoot 0 0
rtoes 0
lfemur -17.3574 -10.2877 -14.0145
ltibia 24.0197
lfoot -15.8135 2.31656
ltoes -56.4682
249
root -0.304652 18.7963 5.61 8.0211 16.8827 1.04436
lowerback 11.3465 5.15749 3.93501
upperback -0.0772804 7.55212 2.62719
thorax -6.27326 3.61878 -0.670902
lowerneck -10.0968 -12.0548 -10.2397
upperneck 7.78782 -15.4865 7.04584
head 5.31255 -7.51033 2.46052
rclavicle 1.63003e-014 -7.95139e-015
rhumerus -18.746 5.06379 -59.1809
rradius 97.5805
rwrist -48.7209
rhand -0.696705 -48.8318
rfingers 7.12502
rthumb 24.9229 -77.2268
lclavicle 1.63003e-014 -7.95139e-015
lhumerus -54.0617 -6.79351 91.0641
lradius 66.1936
lwrist 13.3316
lhand -6.59192 -24.0905
lfingers 7.12502
lthumb 19.2633 4.97547
rfemur 0 0 0
rtibia 0
rfoot 0 0
rtoes 0
lfemur -16.9835 -10.0634 -14.2074
ltibia 23.9157
lfoot -16.083 2.79129
ltoes -56.3893
250
root -0.3031 18.7943 5.6104 7.912 15.972 1.11143
lowerback 11.3201 5.3179 3.71611
upperback -0.126556 7.73027 2.52326
thorax -6.31908 3.70946 -0.687817
lowerneck -10.3324 -12.0093 -10.2931
upperneck 7.92305 -15.3902 6.95097
head 5.38121 -7.46373 2.43327
rclavicle -2.90226e-014 -6.04305e-014
rhumerus -15.5868 5.86034 -59.5334
rradius 92.0634
rwrist -48.713
rhand -0.211225 -50.1216
rfingers 7.12502
rthumb 25.388 -78.4513
lclavicle -2.90226e-014 -6.04305e-014
lhumerus -53.6205 -6.50542 91.0571
lradius 64.8261
lwrist 13.1695
lhand -6.73059 -23.9952
lfingers 7.12502
lthumb 19.1299 5.08399
rfemur 0 0 0
rtibia 0
rfoot 0 0
rtoes 0
lfemur -16.5854 -9.62628 -14.4044
ltibia 23.8083
lfoot -16.2842 3.1286
ltoes -56.3385
251
root -0.300917 18.7914 5.60981 7.71872 15.0275 1.13055
lowerback 11.3148 5.45928 3.66036
upperback -0.157098 7.90277 2.39662
thorax -6.33246 3.79267 -0.816487
lowerneck -10.6189 -11.9457 -10.228
upperneck 8.22149 -15.2706 6.69743
head 5.48539 -7.41001 2.33757
rclavicle -3.63776e-014 -3.18055e-015
rhumerus -12.5445 6.23018 -60.3789
rradius 86.1787
rwrist -48.7472
rhand -1.95336 -50.488
rfingers 7.12502
rthumb 23.7181 -79.0445
lclavicle -3.63776e-014 -3.18055e-015
lhumerus -53.081 -6.50697 91.1155
lradius 63.2168
lwrist 13.0154
lhand -6.95338 -23.9704
lfingers 7.12502
lthumb 18.9157 5.12988
rfemur 0 0 0
rtibia 0
rfoot 0 0
rtoes 0
lfemur -16.1095 -9.179 -14.5619
ltibia 23.7033
lfoot -16.4343 3.44136
ltoes -56.1712
252
root -0.295893 18.7874 5.61079 7.44554 14.1026 1.15023
lowerback 11.296 5.56036 3.62407
upperback -0.134049 8.02428 2.32126
thorax -6.28738 3.85339 -0.889944
lowerneck -11.0123 -11.8317 -10.1093
upperneck 8.65847 -15.0663 6.28456
head 5.62748 -7.32096 2.18663
rclavicle 6.42074e-014 -6.36111e-015
rhumerus -9.40407 6.44649 -61.4539
rradius 79.7492
rwrist -47.7939
rhand -4.2319 -50.6228
rfingers 7.12502
rthumb 21.5313 -79.4461
lclavicle 6.42074e-014 -6.36111e-015
lhumerus -52.4495 -6.7615 91.2855
lradius 61.4298
lwrist 12.9682
lhand -7.08097 -23.8292
lfingers 7.12502
lthumb 18.7929 5.283
rfemur 0 0 0
rtibia 0
rfoot 0 0
rtoes 0
lfemur -15.5307 -8.95448 -14.7309
ltibia 23.6035
lfoot -16.6116 3.96224
ltoes -55.9577
